<?xml version="1.0" encoding="UTF-8" standalone="no"?>
<!DOCTYPE svg PUBLIC "-//W3C//DTD SVG 1.1//EN" "http://www.w3.org/Graphics/SVG/1.1/DTD/svg11.dtd">
<svg width="100%" height="100%" viewBox="0 0 2175 346" version="1.1" xmlns="http://www.w3.org/2000/svg" xmlns:xlink="http://www.w3.org/1999/xlink" xml:space="preserve" xmlns:serif="http://www.serif.com/" style="fill-rule:evenodd;clip-rule:evenodd;stroke-linejoin:round;stroke-miterlimit:1.41421;">
    <g transform="matrix(1,0,0,1,-83.4793,-2854.28)">
        <path d="M83.479,3153.37L133.012,3126.37L173.952,3124.63L202.261,3132.47L272.817,3151.2L432.657,3118.53L471.855,3134.65L535.007,3101.11L558.961,3106.34L577.254,3123.76L599.466,3126.37L632.131,3095.88L644.761,3107.64L669.151,3086.74L700.509,3096.76L737.529,3122.02L842.057,3155.55L913.92,3136.82L987.089,3077.16L1015.4,3070.19L1045.89,3087.17L1099.89,3063.22L1129.07,3084.13L1144.75,3094.58L1164.79,3106.92L1187.29,3098.35L1207.47,3070.62L1227.82,3071.07L1259.15,3086.17L1268.01,3085.87L1296.75,3101.11L1385.16,3148.15L1611.64,3124.63L1667.83,3084.8L1719.22,3074.78L1756.24,3084.8L1801.53,3066.7L1850.75,3060.04L1888.2,3072.67L1911.72,3093.14L1959.19,3049.51L1990.55,3074.11L2020.32,3074.25L2054.43,3057.85L2090.73,3083.25L2128.62,3104.45L2177.4,3093.27L2206.58,3114.61L2231.4,3110.69L2248.39,3116.35L2257.92,3122.45L2257.92,3195.62L83.479,3195.62L83.479,3153.37" style="fill:rgb(183,183,183);"/>
        <g transform="matrix(1,0,0,1.08211,0,199.16)">
            <path d="M1543.62,2549.43L1556.28,2557.29L1567.51,2591.83L1582.68,2605.42L1591.17,2614.16L1639.01,2691.45L1659.04,2695.4L1675.97,2703.89L1702.84,2681.73L1714.31,2694.08L1737.62,2726.47L1753.81,2743.11L1768.15,2746.09L1788.44,2733.3L1809.43,2750.7L1838.47,2733.29L1898.66,2701.18L1922.66,2677.78L1965.5,2669.16L1988.21,2684.89L2019.85,2644.93L2053.94,2617.8L2079.62,2642.01L2096.75,2666.78L2110.9,2657.56L2130.5,2671.39C2135.74,2682.49 2146.19,2709.05 2146.19,2709.05L2172.05,2732.6L2201.03,2727.95L2246.45,2681.73L2257.92,2694.08L2257.92,2772.58C2257.92,2772.58 1442.51,2772.58 1170.7,2772.58C989.498,2772.58 627.091,2772.58 627.091,2772.58L83.479,2772.58L83.479,2694.08L93.915,2701.56L119.947,2726.1L145.117,2716.33L177.726,2725.37L240.877,2657.78L253.114,2669.12L287.468,2645.53L355.925,2665.6L429.482,2744.45L443.828,2736.23L485.401,2725.47L528.684,2736.41L555.861,2726.62L590.293,2747.84L602.388,2730.15L628.174,2729.13L639.644,2716.78L690.524,2695.4L770.23,2607.69L800.418,2627.55L840.235,2563.36L889.539,2598.95L928.457,2653.71L967.726,2699.6L988.417,2697.68L1007,2704.04L1039.43,2688.39L1073.27,2684.85L1095.95,2727.72L1122.8,2761.22L1132.82,2749.34L1148.96,2739.01L1170.7,2730.63L1192.44,2738.38L1226.59,2722.38L1245.45,2727.72L1288.59,2691.4L1334.33,2654.63L1366.63,2615.85L1401.1,2598.52L1410.52,2603.59L1418.14,2578.37L1426.14,2583.07L1437.48,2565.33L1453.86,2514.51L1478.18,2480.85L1543.62,2549.43Z" style="fill:white;"/>
        </g>
        <g transform="matrix(0.318671,-0.120329,0.120329,0.318671,634.256,2166.24)">
            <path d="M1488.01,2720.97L1469.08,2724.8L1448.75,2716.47L1428.19,2722.08L1419.41,2738.69L1424.45,2761.71L1409.34,2747.43L1405.29,2730.58L1387.79,2720.4L1366.58,2720.44L1347.45,2742.52L1321.5,2750.43L1300.61,2766.24L1289.08,2787.8L1288.07,2811.49L1295.67,2818.46L1293.74,2830.18L1306.6,2851.84L1286.54,2881.96L1283.23,2901.66L1289.69,2916.08L1271.16,3009.95L1252.63,3049.51L1260.81,3108.09L1260.81,3130.44L1305.51,3091.19L1296.24,3086.28L1277.71,3091.73L1289.16,3027.4L1302.24,3005.59L1325.14,2959.79L1343.68,2931.99L1387.84,2936.35L1418.37,2937.44L1394.38,2967.97L1383.48,2994.14L1361.13,3030.12L1353.49,3056.3L1392.2,3049.51L1421.64,3021.95L1407.47,3018.68L1388.38,3026.85L1439.09,2965.79L1461.44,2931.99L1457.08,2910.72L1400.38,2883.72L1423.82,2852.93L1472.35,2924.35L1495.79,2925.44L1520.87,2916.08L1519.24,2909.63L1489.25,2908.54L1468.53,2863.83L1461.44,2862.2L1446.99,2798.28L1458.28,2787.23L1470.17,2790.23L1479.16,2788.33L1483.25,2783.14L1481.09,2765.97L1488.01,2763.79L1478.89,2753.7L1477.26,2738.98L1491.98,2725.35L1488.01,2720.97Z" style="fill:white;"/>
        </g>
        <g transform="matrix(0.16345,0.106235,-0.106235,0.16345,517.216,2604.74)">
            <path d="M601.929,2392.9L577.352,2448.07L592.176,2491.95L526.949,2446.29L545.924,2414.27L553.633,2370.39L581.503,2320.58L563.713,2302.2L510.345,2247.64L467.058,2215.62L466.465,2167L472.395,2142.09L450.455,2114.82L458.163,2073.31L502.044,2037.14L555.412,2018.16L619.453,2005.71L640.208,1995.04L643.766,1983.77L655.625,1969.54L646.73,1952.34L663.334,1953.53L698.913,1950.56L726.19,1968.35L739.767,1988.59L753.511,2009.36L738.049,2005.12L729.747,2020.53L738.049,2027.65L714.33,2054.93L709.586,2050.18L690.611,2061.45L672.228,2056.7L662.741,2072.12L749.909,2195.46L771.849,2209.69L771.849,2238.75L742.793,2246.46L727.375,2238.75L729.747,2221.55L652.067,2160.48L621.232,2126.68L589.212,2164.63L598.24,2188.51L673.192,2239.86L679.681,2259.33L639.123,2391.82L660.213,2417.77L601.809,2393.98L601.929,2392.9ZM595.536,2256.99L623.747,2291.02L632.029,2278.79L595.536,2256.99Z" style="fill:white;"/>
            <path d="M445.923,2336.81C511.262,2336.81 564.309,2389.86 564.309,2455.2C564.309,2520.54 511.262,2573.58 445.923,2573.58C380.584,2573.58 327.537,2520.54 327.537,2455.2C327.537,2389.86 380.584,2336.81 445.923,2336.81ZM445.923,2356.41C500.447,2356.41 544.714,2400.67 544.714,2455.2C544.714,2509.72 500.447,2553.99 445.923,2553.99C391.399,2553.99 347.132,2509.72 347.132,2455.2C347.132,2400.67 391.399,2356.41 445.923,2356.41Z" style="fill:white;"/>
            <g transform="matrix(1,0,0,1,371.214,0)">
                <path d="M445.923,2336.81C511.262,2336.81 564.309,2389.86 564.309,2455.2C564.309,2520.54 511.262,2573.58 445.923,2573.58C380.584,2573.58 327.537,2520.54 327.537,2455.2C327.537,2389.86 380.584,2336.81 445.923,2336.81ZM445.923,2356.41C500.447,2356.41 544.714,2400.67 544.714,2455.2C544.714,2509.72 500.447,2553.99 445.923,2553.99C391.399,2553.99 347.132,2509.72 347.132,2455.2C347.132,2400.67 391.399,2356.41 445.923,2356.41Z" style="fill:white;"/>
            </g>
            <path d="M745.017,2285.65C745.017,2280.84 741.113,2276.94 736.304,2276.94L551.249,2276.94C546.44,2276.94 542.536,2280.84 542.536,2285.65C542.536,2290.46 546.44,2294.36 551.249,2294.36L736.304,2294.36C741.113,2294.36 745.017,2290.46 745.017,2285.65Z" style="fill:white;"/>
            <g transform="matrix(0.602892,-0.915765,0.835243,0.549881,-1797.85,1703.8)">
                <path d="M745.017,2285.65C745.017,2280.84 741.456,2276.94 737.07,2276.94L550.483,2276.94C546.097,2276.94 542.536,2280.84 542.536,2285.65C542.536,2290.46 546.097,2294.36 550.483,2294.36L737.07,2294.36C741.456,2294.36 745.017,2290.46 745.017,2285.65Z" style="fill:white;"/>
            </g>
            <g transform="matrix(-0.519168,-1.1441,-0.910629,0.413225,3187.46,2146.28)">
                <path d="M745.017,2285.65C745.017,2280.84 741.91,2276.94 738.082,2276.94L549.471,2276.94C545.644,2276.94 542.536,2280.84 542.536,2285.65C542.536,2290.46 545.644,2294.36 549.471,2294.36L738.082,2294.36C741.91,2294.36 745.017,2290.46 745.017,2285.65Z" style="fill:white;"/>
            </g>
            <g transform="matrix(-0.274239,0.103736,0.353802,0.93532,112.902,35.3084)">
                <path d="M745.017,2285.65C745.017,2280.84 731.702,2276.94 715.301,2276.94L572.252,2276.94C555.851,2276.94 542.536,2280.84 542.536,2285.65C542.536,2290.46 555.851,2294.36 572.252,2294.36L715.301,2294.36C731.702,2294.36 745.017,2290.46 745.017,2285.65Z" style="fill:white;"/>
            </g>
        </g>
        <g transform="matrix(0.147401,1.27538e-17,-1.27538e-17,0.147401,813.734,2689.8)">
            <path d="M969.093,2933.2L1710.61,2928.59L1776.77,2903.86L1721.54,2825.61L1711.76,2766.93L1653.08,2699.04L1627.76,2628.28L1561.03,2582.25L1516.73,2527.6L1469.8,2510.91L1439.06,2469.49L1395.33,2471.79L1358.51,2453.38L1307.31,2478.69L1269.34,2480.42L1247.48,2518.39L1202.03,2539.1L1170.7,2601.24L1103.07,2645.54L1076.03,2724.93L1023.1,2790.52L1010.44,2854.28L969.093,2933.2Z" style="fill:white;"/>
            <g transform="matrix(1,0,0,1,-4.73095,-1.31516)">
                <path d="M1359.56,2429.86C1430.31,2441.16 1497.42,2472.05 1553.37,2515.36C1627.17,2572.48 1684.07,2649.32 1728.13,2731.41C1758.76,2788.47 1784.08,2848.33 1802.16,2910.56C1803.07,2913.67 1803.95,2916.79 1804.78,2919.92L1804.97,2920.65L1805.06,2922.27L1804.52,2923.8L1803.44,2925.02C1802.17,2925.63 1801.83,2926.02 1800.35,2925.82C1799.82,2925.74 1799.33,2925.46 1798.82,2925.28L1797.61,2924.2C1796.9,2922.74 1796.48,2921.11 1796.04,2919.53C1785.01,2879.37 1770.09,2840.24 1753.29,2802.1C1722.13,2731.32 1683.11,2663.87 1633.24,2604.45C1590.01,2552.94 1538.14,2507.76 1477.68,2476.99C1440.22,2457.92 1399.88,2444.74 1358.26,2438.09L1357.95,2438.04C1293.11,2448.7 1232.05,2479.04 1181.5,2522.55C1112.27,2582.16 1062.65,2661.82 1025.55,2745.62C999.693,2804.02 979.022,2865.33 965.902,2927C965.408,2929.32 964.926,2931.64 964.485,2933.97L963.876,2935.48L962.737,2936.64L961.241,2937.28L959.615,2937.29L958.108,2936.68C956.956,2935.55 956.943,2935.53 956.312,2934.05L956.297,2932.42C962.298,2900.74 971.305,2869.64 981.206,2838.89C1009.8,2750.09 1049.48,2664.51 1105.88,2591.16C1151.51,2531.81 1209.5,2480.94 1278.7,2452.11C1303.31,2441.86 1328.9,2434.48 1355.4,2430.01C1355.43,2430.01 1357.23,2429.71 1357.26,2429.71C1358.03,2429.65 1358.8,2429.74 1359.56,2429.86Z" style="fill:white;fill-rule:nonzero;"/>
            </g>
        </g>
    </g>
</svg>
