<?xml version="1.0" encoding="UTF-8" standalone="no"?>
<!DOCTYPE svg PUBLIC "-//W3C//DTD SVG 1.1//EN" "http://www.w3.org/Graphics/SVG/1.1/DTD/svg11.dtd">
<svg width="100%" height="100%" viewBox="0 0 2363 355" version="1.1" xmlns="http://www.w3.org/2000/svg" xmlns:xlink="http://www.w3.org/1999/xlink" xml:space="preserve" xmlns:serif="http://www.serif.com/" style="fill-rule:evenodd;clip-rule:evenodd;stroke-linejoin:round;stroke-miterlimit:1.41421;">
    <g transform="matrix(1,0,0,1,0,-1771.65)">
        <g transform="matrix(0.561609,0,0,0.561609,-163.566,376.602)">
            <path d="M950.187,3110.15C946.306,3099.52 943.43,3088.41 941.66,3076.93C924.904,3085.41 905.963,3090.19 885.914,3090.19C848.659,3090.19 815.227,3073.69 792.537,3047.6C761.749,3073.69 721.918,3089.43 678.439,3089.43C580.949,3089.43 501.8,3010.28 501.8,2912.8C501.8,2815.3 580.949,2736.16 678.439,2736.16C753.88,2736.16 818.339,2783.55 843.636,2850.17C856.83,2845.36 871.068,2842.74 885.914,2842.74C936.742,2842.74 980.452,2873.46 999.479,2917.33C1030.62,2889.87 1071.49,2873.2 1116.23,2873.2C1197.67,2873.2 1266.32,2928.44 1286.71,3003.46C1322.5,2963.04 1374.78,2937.53 1432.96,2937.53C1439.48,2937.53 1445.92,2937.85 1452.27,2938.48C1471.3,2870.76 1533.55,2821.04 1607.32,2821.04C1608.65,2821.04 1609.98,2821.06 1611.31,2821.09C1608.7,2811.1 1607.32,2800.63 1607.32,2789.83C1607.32,2721.54 1662.76,2666.1 1731.04,2666.1C1780.25,2666.1 1822.79,2694.89 1842.71,2736.53C1867.41,2726.71 1894.34,2721.3 1922.53,2721.3C2041.87,2721.3 2138.76,2818.19 2138.76,2937.53C2138.76,3008.03 2104.95,3070.7 2052.68,3110.15L1792.37,3110.15C1774.78,3096.87 1759.3,3080.99 1746.5,3063.07C1735.81,3081.38 1721.62,3097.39 1704.84,3110.15L950.187,3110.15Z" style="fill:rgb(217,217,217);"/>
        </g>
        <g transform="matrix(0.99254,0,0,0.99254,-80.4882,-216.498)">
            <path d="M1458.39,2186.55C1476.59,2161.82 1505.9,2145.76 1538.93,2145.76C1581.62,2145.76 1618.09,2172.58 1632.41,2210.27C1639.87,2207.55 1647.93,2206.07 1656.33,2206.07C1685.09,2206.07 1709.82,2223.45 1720.59,2248.27C1738.21,2232.73 1761.34,2223.3 1786.65,2223.3C1832.73,2223.3 1871.58,2254.56 1883.11,2297.01C1903.36,2274.13 1932.94,2259.7 1965.87,2259.7C1969.55,2259.7 1973.2,2259.89 1976.79,2260.24C1987.56,2221.92 2022.78,2193.79 2064.52,2193.79C2065.28,2193.79 2066.03,2193.8 2066.78,2193.82C2065.31,2188.17 2064.52,2182.24 2064.52,2176.13C2064.52,2137.49 2095.89,2106.12 2134.53,2106.12C2162.37,2106.12 2186.44,2122.41 2197.72,2145.97C2211.69,2140.41 2226.93,2137.35 2242.88,2137.35C2310.41,2137.35 2365.23,2192.18 2365.23,2259.7C2365.23,2299.6 2346.1,2335.05 2316.52,2357.38L2169.23,2357.38C2159.28,2349.86 2150.52,2340.88 2143.27,2330.74C2137.23,2341.1 2129.2,2350.16 2119.7,2357.38L1692.7,2357.38C1690.5,2351.36 1688.87,2345.07 1687.87,2338.58C1678.39,2343.38 1667.67,2346.08 1656.33,2346.08C1635.25,2346.08 1616.33,2336.74 1603.49,2321.98C1586.07,2336.75 1563.54,2345.65 1538.93,2345.65C1531.54,2345.65 1524.34,2344.85 1517.41,2343.33C1514.77,2346.91 1511.89,2350.31 1508.81,2353.51L1364.94,2353.51C1347.59,2335.54 1336.92,2311.09 1336.92,2284.17C1336.92,2229 1381.71,2184.22 1436.87,2184.22C1444.26,2184.22 1451.46,2185.02 1458.39,2186.55Z" style="fill:rgb(217,217,217);"/>
        </g>
        <g transform="matrix(0.599033,0,0,0.599033,216.7,111.412)">
            <g transform="matrix(0.435985,0.130586,-0.130586,0.435985,914.557,1876.07)">
                <path d="M1314.86,1749.61C1323.77,1749.61 1334.28,1742.5 1344.48,1741.93C1355.97,1741.3 1370.38,1747.27 1366.84,1765.26C1365.3,1773.12 1348.88,1781.25 1348.88,1781.25L1087.82,1945.12L1011.99,1864.43C1011.99,1864.43 1026.85,1846.56 1037.27,1845.96C1051.2,1845.15 1086.63,1873.53 1105.28,1866.4C1132.82,1855.87 1205.67,1789.88 1205.67,1789.88C1205.67,1789.88 1251.02,1752.77 1265.76,1745.97C1275.49,1741.48 1283.07,1739.61 1291.01,1741.93C1297.3,1743.77 1308.31,1749.61 1314.86,1749.61Z" style="fill:white;"/>
            </g>
            <g transform="matrix(0.990829,0.0772072,-0.0776863,0.996978,211.104,689.264)">
                <path d="M812.359,2196.89L1081.81,2099.63L1084.03,2103.36L812.359,2196.89Z" style="fill:white;"/>
            </g>
        </g>
        <g transform="matrix(0.952765,0,0,0.938594,0,-88.7591)">
            <path d="M1100.01,2040.73C1122.1,2005.54 1161.25,1982.13 1205.83,1982.13C1272.48,1982.13 1327.01,2034.47 1330.5,2100.27C1365.31,2116.52 1390.86,2149.33 1397.02,2188.53C1398.11,2195.01 1398.68,2201.66 1398.68,2208.44C1398.68,2220.76 1396.81,2232.66 1393.33,2243.84C1398.72,2242.73 1404.31,2242.15 1410.03,2242.15C1431.65,2242.15 1451.34,2250.49 1466.05,2264.14C1487.34,2233.83 1522.56,2214.01 1562.38,2214.01C1615.91,2214.01 1661.13,2249.84 1675.36,2298.81C1676.9,2298.72 1678.45,2298.68 1680.01,2298.68C1710.21,2298.68 1736.64,2314.97 1750.98,2339.23C1769,2289.01 1817.05,2253.05 1873.44,2253.05C1908.72,2253.05 1940.74,2267.13 1964.18,2289.97C1981.2,2253.22 2018.42,2227.7 2061.55,2227.7C2105.2,2227.7 2142.79,2253.83 2159.52,2291.28C2170.86,2277.15 2186.77,2266.83 2204.99,2262.57C2190.3,2240 2181.76,2213.06 2181.76,2184.15C2181.76,2104.67 2246.28,2040.15 2325.75,2040.15C2379.28,2040.15 2426.02,2069.41 2450.84,2112.8C2459.49,2106.3 2469.05,2100.97 2479.32,2097.04L2479.32,2359.64L0,2359.64L0,2203.47L0,2097.04C13.06,2092.02 27.245,2089.28 42.065,2089.28C106.988,2089.28 159.698,2141.99 159.698,2206.91C159.698,2219.88 157.595,2232.36 153.712,2244.03C159.371,2242.8 165.247,2242.15 171.274,2242.15C192.897,2242.15 212.587,2250.49 227.292,2264.14C248.58,2233.83 283.802,2214.01 323.619,2214.01C377.151,2214.01 422.379,2249.84 436.602,2298.81C438.141,2298.72 439.691,2298.68 441.252,2298.68C471.455,2298.68 497.885,2314.97 512.229,2339.23C530.245,2289.01 578.299,2253.05 634.686,2253.05C669.968,2253.05 701.987,2267.13 725.426,2289.97C742.443,2253.22 779.663,2227.7 822.796,2227.7C866.442,2227.7 904.033,2253.83 920.764,2291.28C932.108,2277.15 948.012,2266.83 966.236,2262.57C951.542,2240 943.001,2213.06 943.001,2184.15C943.001,2104.67 1007.52,2040.15 1087,2040.15C1091.38,2040.15 1095.72,2040.34 1100.01,2040.73Z" style="fill:white;"/>
        </g>
        <g transform="matrix(0.483376,-0.182522,0.159756,0.423084,-98.8012,819.108)">
            <path d="M1139.2,2994.53C1153.28,2983.93 1177.64,2970.28 1203.67,2958.62C1222.25,2953.52 1241.81,2950.83 1261.99,2950.83C1269.6,2950.83 1277.13,2951.22 1284.55,2951.97C1286.11,2957.95 1282.72,2963.6 1269.11,2963.92C1256.18,2964.21 1241.14,2967.05 1225.82,2971.22C1226.5,2983.29 1226.92,3010.97 1220.27,3045.43C1218.66,3053.72 1208.24,3053.77 1208.36,3045.33C1208.8,3014.9 1199.87,2992.73 1193.99,2981.48C1175.03,2988.43 1157.73,2996.16 1145.9,3002.13C1147.01,3009.37 1148.44,3023.82 1145.56,3039.01C1144.83,3042.86 1139.77,3044.05 1139.61,3040.13C1139.01,3025.5 1134.13,3014.07 1131.68,3009.2C1128.22,3009.74 1127.49,3006.86 1128.66,3004.21C1127.73,3003.16 1126.04,3001.6 1124.63,3000.25L1130.81,2995.64L1134.61,2992.99C1135.89,2993.35 1138.27,2993.99 1139.2,2994.53Z" style="fill:rgb(217,217,217);"/>
        </g>
    </g>
</svg>
