<?xml version="1.0" encoding="UTF-8" standalone="no"?>
<!DOCTYPE svg PUBLIC "-//W3C//DTD SVG 1.1//EN" "http://www.w3.org/Graphics/SVG/1.1/DTD/svg11.dtd">
<svg width="100%" height="100%" viewBox="0 0 2305 219" version="1.1" xmlns="http://www.w3.org/2000/svg" xmlns:xlink="http://www.w3.org/1999/xlink" xml:space="preserve" xmlns:serif="http://www.serif.com/" style="fill-rule:evenodd;clip-rule:evenodd;stroke-linejoin:round;stroke-miterlimit:2;">
    <g transform="matrix(1,0,0,1,-78.547,-1597.64)">
        <path d="M78.547,1753.94C78.547,1753.94 252.637,1724.12 317.104,1724.12C367.788,1724.12 417.036,1736.52 464.025,1736.52C509.404,1736.52 553.656,1724.12 599.035,1724.12C653.253,1724.12 729.609,1752.58 791.507,1753.94C851.569,1755.25 910.349,1732.25 970.425,1732.25C1031.42,1732.25 1101,1750.32 1157.48,1753.94C1207.98,1757.17 1258.68,1753.94 1309.29,1753.94C1361.24,1753.94 1428.11,1767.04 1469.23,1753.94C1506.41,1742.09 1569.41,1732.67 1608.44,1732.67C1652.72,1732.67 1670.74,1747.61 1734.89,1753.94C1799.05,1760.26 1893.61,1737.47 1949.63,1730.69C1992.69,1725.49 2036.78,1724.84 2079.75,1730.69C2129.45,1737.47 2188.53,1740.28 2239.12,1753.94C2302.36,1771.02 2382.79,1753.94 2382.79,1753.94L2382.79,1816.29L78.547,1816.29L78.547,1753.94Z" style="fill:white;"/>
        <g transform="matrix(0.557416,0,0,0.557416,179.487,734.932)">
            <path d="M662.6,1697.08C657.622,1701.58 649.954,1702.97 638.227,1697.9C597.665,1680.38 642.221,1645.99 642.221,1645.99C642.221,1645.99 590.209,1667.32 590.073,1623.22C589.959,1586.55 638.324,1605.56 638.324,1605.56C638.324,1605.56 605.413,1557.97 647.338,1548.57C685.64,1539.99 675.896,1597.27 675.896,1597.27C675.896,1597.27 717.551,1550.51 734.392,1590.09C751.735,1630.85 698.361,1633.61 698.361,1633.61C698.361,1633.61 755.432,1653.73 719.714,1684.91C698.255,1703.64 684.888,1689.36 677.682,1675.19C678.407,1704.62 673.701,1749.99 671.343,1775.75C674.27,1765.37 681.167,1747.47 696.969,1727.39C721.82,1695.83 747.007,1688.1 747.007,1688.1C747.007,1688.1 750.23,1712.73 718.998,1747.99C692.496,1777.91 675.18,1783.82 670.543,1784.92C670.342,1787.43 670.194,1789.56 670.117,1791.22C670.008,1793.57 663.087,1793.57 663.082,1791.22C663.077,1788.9 663.035,1785.69 662.974,1781.77C653.747,1776.24 635.697,1764.12 622.043,1746.87C602.901,1722.69 608.946,1701.13 608.946,1701.13C608.946,1701.13 625.402,1707.92 643.536,1736.63C652.417,1750.69 658.698,1762.62 662.796,1771.13C662.459,1751.12 662.015,1722.06 662.6,1697.08Z" style="fill:white;"/>
        </g>
        <g transform="matrix(0.557416,0,0,0.557416,214.993,739.459)">
            <path d="M481.186,1715.74C477.609,1724.43 470.332,1731.69 455.533,1725.84C431,1716.14 456.588,1688.89 456.588,1688.89C456.588,1688.89 416.021,1698.2 420.911,1667.68C425.379,1639.8 461.063,1661.58 461.063,1661.58C461.063,1661.58 440.913,1621.28 471.849,1620.57C503.704,1619.84 491.331,1656.25 491.331,1656.25C491.331,1656.25 519.983,1623.47 531.298,1655.64C542.523,1687.57 499.489,1680.76 499.489,1680.76C499.489,1680.76 540.601,1691.3 518.268,1713.56C503.382,1728.4 493.48,1716.4 488.48,1706.56C489.621,1721.1 489.258,1740.38 488.202,1756.99C490.382,1752.57 493.239,1747.89 496.978,1743.14C514.856,1720.43 537.306,1717.04 537.306,1717.04C537.306,1717.04 538.719,1732.9 516.251,1758.27C501.131,1775.34 490.577,1782.38 485.291,1785.16C485.035,1786.64 484.776,1787.93 484.517,1788.99C484.118,1790.63 479.543,1790.68 479.456,1788.99C479.414,1788.17 479.381,1787.22 479.358,1786.13C474.069,1783.87 458.27,1776.28 446.962,1761.99C433.192,1744.6 437.986,1726.41 437.986,1726.41C437.986,1726.41 455.779,1731.29 468.825,1751.95C474.632,1761.14 477.714,1769.07 479.346,1775.03C479.528,1759.09 480.358,1735 481.186,1715.74Z" style="fill:white;"/>
        </g>
        <g transform="matrix(-0.557416,0,0,0.557416,2607.51,763.003)">
            <path d="M662.6,1697.08C657.622,1701.58 649.954,1702.97 638.227,1697.9C597.665,1680.38 642.221,1645.99 642.221,1645.99C642.221,1645.99 590.209,1667.32 590.073,1623.22C589.959,1586.55 638.324,1605.56 638.324,1605.56C638.324,1605.56 605.413,1557.97 647.338,1548.57C685.64,1539.99 675.896,1597.27 675.896,1597.27C675.896,1597.27 717.551,1550.51 734.392,1590.09C751.735,1630.85 698.361,1633.61 698.361,1633.61C698.361,1633.61 755.432,1653.73 719.714,1684.91C698.255,1703.64 684.888,1689.36 677.682,1675.19C678.407,1704.62 673.701,1749.99 671.343,1775.75C674.27,1765.37 681.167,1747.47 696.969,1727.39C721.82,1695.83 747.007,1688.1 747.007,1688.1C747.007,1688.1 750.23,1712.73 718.998,1747.99C692.496,1777.91 675.18,1783.82 670.543,1784.92C670.342,1787.43 670.194,1789.56 670.117,1791.22C670.008,1793.57 663.087,1793.57 663.082,1791.22C663.077,1788.9 663.035,1785.69 662.974,1781.77C653.747,1776.24 635.697,1764.12 622.043,1746.87C602.901,1722.69 608.946,1701.13 608.946,1701.13C608.946,1701.13 625.402,1707.92 643.536,1736.63C652.417,1750.69 658.698,1762.62 662.796,1771.13C662.459,1751.12 662.015,1722.06 662.6,1697.08Z" style="fill:white;"/>
        </g>
        <g transform="matrix(0.341103,0,0,0.341103,604.286,1164.99)">
            <path d="M954.088,1482.79C933.091,1460.75 912.926,1414.7 959.29,1376.44C992.66,1411.69 985.325,1464.7 961.486,1482.62C963.112,1492.98 965.121,1506.59 967.079,1521.99C982.494,1488.22 1019.4,1447.16 1065.69,1450.19C1065.82,1496.09 1004.95,1548.25 970.645,1553.18C973.711,1583.65 975.743,1616.86 974.293,1644.57C998.121,1606.03 1045.72,1561.86 1083.15,1566.06C1083.31,1621.79 1006.2,1685.46 967.519,1686.39C965.064,1693.35 961.894,1698.81 957.872,1702.3C952.632,1699.32 948.644,1693.62 945.685,1685.9C905.685,1679.85 835.251,1619.33 835.397,1566.06C869.996,1562.18 913.283,1599.62 938.454,1635.75C937.958,1608.63 940.63,1577.17 944.148,1548.53C909.351,1540.59 852.752,1490.5 852.873,1446.25C898.398,1440.27 933.11,1478.12 949.28,1511.7C950.998,1500.6 952.672,1490.75 954.088,1482.79Z" style="fill:white;"/>
        </g>
        <g transform="matrix(0.420628,0,0,0.420628,507.767,1090.54)">
            <path d="M1254.3,1545.57C1254.25,1546.32 1254.19,1546.99 1254.13,1547.57C1253.91,1549.56 1251.31,1549.57 1248.41,1548.93C1218.42,1556.95 1142.59,1524.26 1147.29,1469.68C1194.19,1463.53 1227.11,1491.7 1241.22,1519.18C1241.8,1507.59 1242.65,1494.15 1243.83,1482.94C1222.39,1460.88 1197.02,1413.6 1243.5,1375.24C1285.27,1398.74 1276.17,1459.08 1253.54,1480.43C1254.36,1492.43 1254.76,1507.63 1254.82,1520.76C1264.11,1498.67 1287.49,1468.21 1346.05,1462.68C1347.18,1518.44 1287.51,1550.75 1254.3,1545.57Z" style="fill:white;"/>
        </g>
        <g transform="matrix(0.341103,0,0,0.341103,1630.12,1152.21)">
            <path d="M954.088,1482.79C933.091,1460.75 912.926,1414.7 959.29,1376.44C992.66,1411.69 985.325,1464.7 961.486,1482.62C963.112,1492.98 965.121,1506.59 967.079,1521.99C982.494,1488.22 1019.4,1447.16 1065.69,1450.19C1065.82,1496.09 1004.95,1548.25 970.645,1553.18C973.711,1583.65 975.743,1616.86 974.293,1644.57C998.121,1606.03 1045.72,1561.86 1083.15,1566.06C1083.31,1621.79 1006.2,1685.46 967.519,1686.39C965.064,1693.35 961.894,1698.81 957.872,1702.3C952.632,1699.32 948.644,1693.62 945.685,1685.9C905.685,1679.85 835.251,1619.33 835.397,1566.06C869.996,1562.18 913.283,1599.62 938.454,1635.75C937.958,1608.63 940.63,1577.17 944.148,1548.53C909.351,1540.59 852.752,1490.5 852.873,1446.25C898.398,1440.27 933.11,1478.12 949.28,1511.7C950.998,1500.6 952.672,1490.75 954.088,1482.79Z" style="fill:white;"/>
        </g>
        <g transform="matrix(0.420628,0,0,0.420628,1259.72,1105.44)">
            <path d="M1254.3,1545.57C1254.25,1546.32 1254.19,1546.99 1254.13,1547.57C1253.91,1549.56 1251.31,1549.57 1248.41,1548.93C1218.42,1556.95 1142.59,1524.26 1147.29,1469.68C1194.19,1463.53 1227.11,1491.7 1241.22,1519.18C1241.8,1507.59 1242.65,1494.15 1243.83,1482.94C1222.39,1460.88 1197.02,1413.6 1243.5,1375.24C1285.27,1398.74 1276.17,1459.08 1253.54,1480.43C1254.36,1492.43 1254.76,1507.63 1254.82,1520.76C1264.11,1498.67 1287.49,1468.21 1346.05,1462.68C1347.18,1518.44 1287.51,1550.75 1254.3,1545.57Z" style="fill:white;"/>
        </g>
        <g transform="matrix(-0.557416,0,0,0.557416,1868.68,739.459)">
            <path d="M481.186,1715.74C477.609,1724.43 470.332,1731.69 455.533,1725.84C431,1716.14 456.588,1688.89 456.588,1688.89C456.588,1688.89 416.021,1698.2 420.911,1667.68C425.379,1639.8 461.063,1661.58 461.063,1661.58C461.063,1661.58 440.913,1621.28 471.849,1620.57C503.704,1619.84 491.331,1656.25 491.331,1656.25C491.331,1656.25 519.983,1623.47 531.298,1655.64C542.523,1687.57 499.489,1680.76 499.489,1680.76C499.489,1680.76 540.601,1691.3 518.268,1713.56C503.382,1728.4 493.48,1716.4 488.48,1706.56C489.621,1721.1 489.258,1740.38 488.202,1756.99C490.382,1752.57 493.239,1747.89 496.978,1743.14C514.856,1720.43 537.306,1717.04 537.306,1717.04C537.306,1717.04 538.719,1732.9 516.251,1758.27C501.131,1775.34 490.577,1782.38 485.291,1785.16C485.035,1786.64 484.776,1787.93 484.517,1788.99C484.118,1790.63 479.543,1790.68 479.456,1788.99C479.414,1788.17 479.381,1787.22 479.358,1786.13C474.069,1783.87 458.27,1776.28 446.962,1761.99C433.192,1744.6 437.986,1726.41 437.986,1726.41C437.986,1726.41 455.779,1731.29 468.825,1751.95C474.632,1761.14 477.714,1769.07 479.346,1775.03C479.528,1759.09 480.358,1735 481.186,1715.74Z" style="fill:white;"/>
        </g>
        <g transform="matrix(0.394376,0,0,0.394376,984.645,1129.03)">
            <path d="M723.326,1550.56C717.466,1562.29 716.46,1577.35 722.032,1593.52C722.032,1593.52 771.896,1580.91 762.885,1526.54C731.315,1527.39 711.863,1554.63 720.337,1587.87C708.982,1583.37 682.295,1568.62 688.684,1530.95C704.4,1531.36 716.76,1538.92 723.326,1550.56Z" style="fill:white;"/>
        </g>
        <g transform="matrix(0.394376,0,0,0.394376,-68.1201,1106.88)">
            <path d="M723.326,1550.56C717.466,1562.29 716.46,1577.35 722.032,1593.52C722.032,1593.52 771.896,1580.91 762.885,1526.54C731.315,1527.39 711.863,1554.63 720.337,1587.87C708.982,1583.37 682.295,1568.62 688.684,1530.95C704.4,1531.36 716.76,1538.92 723.326,1550.56Z" style="fill:white;"/>
        </g>
        <g transform="matrix(0.325043,0,0,0.325043,1068.56,1239.51)">
            <path d="M723.326,1550.56C717.466,1562.29 716.46,1577.35 722.032,1593.52C722.032,1593.52 771.896,1580.91 762.885,1526.54C731.315,1527.39 711.863,1554.63 720.337,1587.87C708.982,1583.37 682.295,1568.62 688.684,1530.95C704.4,1531.36 716.76,1538.92 723.326,1550.56Z" style="fill:white;"/>
        </g>
        <g transform="matrix(0.266622,0,0,0.266622,1044.66,1332.6)">
            <path d="M723.326,1550.56C717.466,1562.29 716.46,1577.35 722.032,1593.52C722.032,1593.52 771.896,1580.91 762.885,1526.54C731.315,1527.39 711.863,1554.63 720.337,1587.87C708.982,1583.37 682.295,1568.62 688.684,1530.95C704.4,1531.36 716.76,1538.92 723.326,1550.56Z" style="fill:white;"/>
        </g>
    </g>
</svg>
